<svg xmlns="http://www.w3.org/2000/svg" xmlns:xlink="http://www.w3.org/1999/xlink" width="500" zoomAndPan="magnify" viewBox="0 0 375 374.999991" height="500" preserveAspectRatio="xMidYMid meet" version="1.0"><defs><g/></defs><g fill="#000000" fill-opacity="1"><g transform="translate(33.523848, 214.096756)"><g><path d="M 2.921875 0 L 13.875 -51.65625 C 14.414062 -54.0625 14.6875 -56.125 14.6875 -57.84375 C 14.6875 -59.164062 14.316406 -60.078125 13.578125 -60.578125 C 12.847656 -61.085938 11.585938 -61.34375 9.796875 -61.34375 L 8.15625 -61.34375 L 8.390625 -62.5 L 25.421875 -62.5 L 22.5 -45.359375 L 22.859375 -45.359375 C 24.878906 -51.660156 27.285156 -56.285156 30.078125 -59.234375 C 32.878906 -62.191406 36.222656 -63.671875 40.109375 -63.671875 C 42.984375 -63.671875 45.101562 -62.890625 46.46875 -61.328125 C 47.832031 -59.773438 48.515625 -57.796875 48.515625 -55.390625 C 48.515625 -52.671875 47.675781 -50.648438 46 -49.328125 C 44.332031 -48.003906 42.289062 -47.34375 39.875 -47.34375 C 39.957031 -48.582031 40.015625 -49.648438 40.046875 -50.546875 C 40.085938 -51.441406 40.109375 -52.28125 40.109375 -53.0625 C 40.109375 -56.25 39.738281 -58.363281 39 -59.40625 C 38.257812 -60.457031 37.3125 -60.984375 36.15625 -60.984375 C 34.125 -60.984375 32.132812 -59.851562 30.1875 -57.59375 C 28.25 -55.34375 26.460938 -52.289062 24.828125 -48.4375 C 23.203125 -44.59375 21.882812 -40.300781 20.875 -35.5625 L 13.0625 0 Z M 2.921875 0 "/></g></g></g><g fill="#000000" fill-opacity="1"><g transform="translate(69.083565, 214.096756)"><g><path d="M 15.515625 1.171875 C 11.234375 1.171875 8.101562 -0.5 6.125 -3.84375 C 4.144531 -7.1875 3.15625 -11.734375 3.15625 -17.484375 C 3.15625 -21.222656 3.5625 -25.191406 4.375 -29.390625 C 5.1875 -33.585938 6.390625 -37.707031 7.984375 -41.75 C 9.578125 -45.789062 11.578125 -49.460938 13.984375 -52.765625 C 16.398438 -56.066406 19.203125 -58.707031 22.390625 -60.6875 C 25.578125 -62.675781 29.191406 -63.671875 33.234375 -63.671875 C 35.878906 -63.671875 38.113281 -63.203125 39.9375 -62.265625 C 41.757812 -61.335938 43.253906 -60.328125 44.421875 -59.234375 L 50.953125 -62.390625 L 51.890625 -62.390625 L 43.5 -22.625 C 43.257812 -21.300781 42.960938 -19.6875 42.609375 -17.78125 C 42.265625 -15.875 41.957031 -13.988281 41.6875 -12.125 C 41.414062 -10.257812 41.28125 -8.664062 41.28125 -7.34375 C 41.28125 -3.613281 42.523438 -1.75 45.015625 -1.75 C 46.097656 -1.75 47.164062 -2.078125 48.21875 -2.734375 C 49.269531 -3.398438 50.378906 -4.351562 51.546875 -5.59375 L 52.234375 -4.546875 C 50.921875 -3.148438 49.328125 -1.847656 47.453125 -0.640625 C 45.585938 0.566406 43.296875 1.171875 40.578125 1.171875 C 35.140625 1.171875 32.421875 -1.9375 32.421875 -8.15625 C 32.421875 -10.03125 32.570312 -11.9375 32.875 -13.875 C 33.1875 -15.820312 33.5 -17.84375 33.8125 -19.9375 L 33.46875 -19.9375 C 30.75 -12.394531 27.945312 -6.988281 25.0625 -3.71875 C 22.1875 -0.457031 19.003906 1.171875 15.515625 1.171875 Z M 18.65625 -1.046875 C 20.207031 -1.046875 21.816406 -1.9375 23.484375 -3.71875 C 25.160156 -5.507812 26.773438 -7.921875 28.328125 -10.953125 C 29.890625 -13.992188 31.3125 -17.414062 32.59375 -21.21875 C 33.875 -25.03125 34.941406 -28.992188 35.796875 -33.109375 L 41.046875 -58.765625 C 40.265625 -60.015625 39.253906 -60.945312 38.015625 -61.5625 C 36.773438 -62.1875 35.492188 -62.5 34.171875 -62.5 C 31.523438 -62.5 29.113281 -61.445312 26.9375 -59.34375 C 24.757812 -57.25 22.796875 -54.472656 21.046875 -51.015625 C 19.296875 -47.554688 17.796875 -43.726562 16.546875 -39.53125 C 15.304688 -35.332031 14.375 -31.113281 13.75 -26.875 C 13.132812 -22.632812 12.828125 -18.726562 12.828125 -15.15625 C 12.828125 -10.1875 13.332031 -6.59375 14.34375 -4.375 C 15.351562 -2.15625 16.789062 -1.046875 18.65625 -1.046875 Z M 18.65625 -1.046875 "/></g></g></g><g fill="#000000" fill-opacity="1"><g transform="translate(113.737657, 214.096756)"><g><path d="M 16.328125 1.171875 C 13.054688 1.171875 10.523438 0.179688 8.734375 -1.796875 C 6.953125 -3.785156 6.0625 -6.410156 6.0625 -9.671875 C 6.0625 -11.304688 6.175781 -13.035156 6.40625 -14.859375 C 6.644531 -16.691406 7.113281 -19.203125 7.8125 -22.390625 L 15.96875 -61.34375 L 7.578125 -61.34375 L 7.703125 -61.921875 C 9.878906 -61.921875 12.285156 -62.347656 14.921875 -63.203125 C 17.566406 -64.054688 20.09375 -65.550781 22.5 -67.6875 C 24.914062 -69.832031 26.9375 -72.882812 28.5625 -76.84375 L 29.734375 -76.84375 L 26.703125 -62.5 L 37.078125 -62.5 L 36.84375 -61.34375 L 26.359375 -61.34375 L 17.140625 -18.421875 C 16.441406 -15.160156 15.992188 -12.75 15.796875 -11.1875 C 15.609375 -9.632812 15.515625 -8.316406 15.515625 -7.234375 C 15.515625 -5.210938 15.84375 -3.695312 16.5 -2.6875 C 17.15625 -1.675781 18.378906 -1.171875 20.171875 -1.171875 C 21.648438 -1.171875 23.164062 -1.535156 24.71875 -2.265625 C 26.269531 -3.003906 27.828125 -4 29.390625 -5.25 L 29.859375 -4.203125 C 27.828125 -2.640625 25.722656 -1.351562 23.546875 -0.34375 C 21.378906 0.664062 18.972656 1.171875 16.328125 1.171875 Z M 16.328125 1.171875 "/></g></g></g><g fill="#000000" fill-opacity="1"><g transform="translate(138.33747, 214.096756)"><g><path d="M 21.8125 1.171875 C 16.445312 1.171875 12.109375 -0.691406 8.796875 -4.421875 C 5.492188 -8.160156 3.84375 -13.878906 3.84375 -21.578125 C 3.84375 -24.992188 4.210938 -28.625 4.953125 -32.46875 C 5.691406 -36.320312 6.835938 -40.09375 8.390625 -43.78125 C 9.953125 -47.476562 11.894531 -50.820312 14.21875 -53.8125 C 16.550781 -56.800781 19.3125 -59.191406 22.5 -60.984375 C 25.6875 -62.773438 29.300781 -63.671875 33.34375 -63.671875 C 36.613281 -63.671875 39.566406 -62.890625 42.203125 -61.328125 C 44.847656 -59.773438 46.96875 -57.328125 48.5625 -53.984375 C 50.15625 -50.640625 50.953125 -46.25 50.953125 -40.8125 C 50.953125 -37.46875 50.582031 -33.890625 49.84375 -30.078125 C 49.113281 -26.273438 47.988281 -22.523438 46.46875 -18.828125 C 44.945312 -15.140625 43.039062 -11.78125 40.75 -8.75 C 38.457031 -5.71875 35.738281 -3.304688 32.59375 -1.515625 C 29.445312 0.273438 25.851562 1.171875 21.8125 1.171875 Z M 22.265625 0 C 25.378906 0 28.117188 -1.394531 30.484375 -4.1875 C 32.859375 -6.988281 34.863281 -10.625 36.5 -15.09375 C 38.132812 -19.570312 39.359375 -24.429688 40.171875 -29.671875 C 40.984375 -34.921875 41.390625 -39.992188 41.390625 -44.890625 C 41.390625 -50.878906 40.671875 -55.3125 39.234375 -58.1875 C 37.796875 -61.0625 35.601562 -62.5 32.65625 -62.5 C 29.695312 -62.5 27.03125 -61.140625 24.65625 -58.421875 C 22.289062 -55.703125 20.269531 -52.109375 18.59375 -47.640625 C 16.925781 -43.171875 15.625 -38.269531 14.6875 -32.9375 C 13.757812 -27.613281 13.296875 -22.347656 13.296875 -17.140625 C 13.296875 -10.847656 14.070312 -6.414062 15.625 -3.84375 C 17.175781 -1.28125 19.390625 0 22.265625 0 Z M 22.265625 0 "/></g></g></g><g fill="#000000" fill-opacity="1"><g transform="translate(182.758387, 214.096756)"><g><path d="M 42.90625 1.171875 C 39.800781 1.171875 37.410156 0.257812 35.734375 -1.5625 C 34.066406 -3.394531 33.234375 -5.984375 33.234375 -9.328125 C 33.234375 -11.191406 33.40625 -13.289062 33.75 -15.625 C 34.101562 -17.957031 34.59375 -20.5625 35.21875 -23.4375 L 38.71875 -40 C 39.03125 -41.476562 39.4375 -43.535156 39.9375 -46.171875 C 40.445312 -48.816406 40.703125 -51.148438 40.703125 -53.171875 C 40.703125 -54.179688 40.601562 -55.25 40.40625 -56.375 C 40.207031 -57.507812 39.796875 -58.484375 39.171875 -59.296875 C 38.554688 -60.109375 37.585938 -60.515625 36.265625 -60.515625 C 33.859375 -60.515625 31.601562 -59.234375 29.5 -56.671875 C 27.40625 -54.109375 25.539062 -50.878906 23.90625 -46.984375 C 22.269531 -43.097656 21.023438 -39.132812 20.171875 -35.09375 L 12.703125 0 L 2.5625 0 L 13.53125 -51.78125 C 13.757812 -52.945312 13.953125 -54.015625 14.109375 -54.984375 C 14.265625 -55.953125 14.34375 -56.75 14.34375 -57.375 C 14.34375 -58.695312 14.050781 -59.6875 13.46875 -60.34375 C 12.882812 -61.007812 11.617188 -61.34375 9.671875 -61.34375 L 8.28125 -61.34375 L 8.390625 -62.5 L 25.1875 -62.5 L 22.046875 -45.703125 L 22.265625 -45.703125 C 24.835938 -52.234375 27.5625 -56.820312 30.4375 -59.46875 C 33.3125 -62.113281 36.65625 -63.4375 40.46875 -63.4375 C 44.195312 -63.4375 46.816406 -62.269531 48.328125 -59.9375 C 49.847656 -57.601562 50.609375 -54.882812 50.609375 -51.78125 C 50.609375 -49.757812 50.394531 -47.484375 49.96875 -44.953125 C 49.539062 -42.421875 49.054688 -39.914062 48.515625 -37.4375 L 44.890625 -19.9375 C 44.347656 -17.53125 43.898438 -15.21875 43.546875 -13 C 43.203125 -10.78125 43.03125 -8.738281 43.03125 -6.875 C 43.03125 -2.988281 44.195312 -1.046875 46.53125 -1.046875 C 47.851562 -1.046875 49.09375 -1.53125 50.25 -2.5 C 51.414062 -3.476562 52.625 -4.707031 53.875 -6.1875 L 54.578125 -5.25 C 52.941406 -3.144531 51.25 -1.546875 49.5 -0.453125 C 47.75 0.628906 45.550781 1.171875 42.90625 1.171875 Z M 42.90625 1.171875 "/></g></g></g><g fill="#000000" fill-opacity="1"><g transform="translate(229.511188, 214.096756)"><g><path d="M 23.328125 -76.5 C 21.847656 -76.5 20.582031 -76.882812 19.53125 -77.65625 C 18.476562 -78.4375 17.953125 -79.679688 17.953125 -81.390625 C 17.953125 -83.566406 18.648438 -85.21875 20.046875 -86.34375 C 21.453125 -87.476562 23.085938 -88.046875 24.953125 -88.046875 C 26.429688 -88.046875 27.710938 -87.675781 28.796875 -86.9375 C 29.890625 -86.195312 30.4375 -84.929688 30.4375 -83.140625 C 30.4375 -80.960938 29.734375 -79.3125 28.328125 -78.1875 C 26.929688 -77.0625 25.265625 -76.5 23.328125 -76.5 Z M 15.859375 1.171875 C 9.484375 1.171875 6.296875 -2.289062 6.296875 -9.21875 C 6.296875 -12.25 6.957031 -16.71875 8.28125 -22.625 L 14.578125 -53.171875 C 15.046875 -54.878906 15.28125 -56.472656 15.28125 -57.953125 C 15.28125 -59.117188 14.890625 -59.972656 14.109375 -60.515625 C 13.328125 -61.066406 11.8125 -61.34375 9.5625 -61.34375 L 8.15625 -61.34375 L 8.390625 -62.5 L 27.046875 -62.5 L 17.265625 -16.5625 C 16.710938 -14.226562 16.359375 -12.28125 16.203125 -10.71875 C 16.046875 -9.164062 15.96875 -7.847656 15.96875 -6.765625 C 15.96875 -5.054688 16.203125 -3.65625 16.671875 -2.5625 C 17.140625 -1.476562 18.035156 -0.9375 19.359375 -0.9375 C 20.523438 -0.9375 21.726562 -1.441406 22.96875 -2.453125 C 24.21875 -3.460938 25.460938 -4.707031 26.703125 -6.1875 L 27.515625 -5.25 C 25.960938 -3.382812 24.3125 -1.847656 22.5625 -0.640625 C 20.8125 0.566406 18.578125 1.171875 15.859375 1.171875 Z M 15.859375 1.171875 "/></g></g></g><g fill="#000000" fill-opacity="1"><g transform="translate(249.214018, 214.096756)"><g><path d="M 23.09375 1.171875 C 17.175781 1.171875 12.507812 -0.769531 9.09375 -4.65625 C 5.675781 -8.550781 3.96875 -14.5 3.96875 -22.5 C 3.96875 -26.9375 4.566406 -31.523438 5.765625 -36.265625 C 6.972656 -41.003906 8.800781 -45.429688 11.25 -49.546875 C 13.695312 -53.671875 16.828125 -57.015625 20.640625 -59.578125 C 24.453125 -62.148438 28.921875 -63.4375 34.046875 -63.4375 C 39.179688 -63.4375 42.816406 -62.25 44.953125 -59.875 C 47.085938 -57.507812 48.15625 -54.8125 48.15625 -51.78125 C 48.15625 -49.675781 47.515625 -47.863281 46.234375 -46.34375 C 44.953125 -44.832031 42.753906 -44.078125 39.640625 -44.078125 C 39.878906 -45.398438 40.054688 -46.796875 40.171875 -48.265625 C 40.285156 -49.742188 40.304688 -51.300781 40.234375 -52.9375 C 40.148438 -56.363281 39.503906 -58.753906 38.296875 -60.109375 C 37.097656 -61.472656 35.410156 -62.15625 33.234375 -62.15625 C 30.429688 -62.15625 27.84375 -60.945312 25.46875 -58.53125 C 23.101562 -56.125 21.023438 -52.898438 19.234375 -48.859375 C 17.453125 -44.816406 16.070312 -40.347656 15.09375 -35.453125 C 14.125 -30.554688 13.640625 -25.617188 13.640625 -20.640625 C 13.640625 -13.722656 14.550781 -8.59375 16.375 -5.25 C 18.207031 -1.90625 20.71875 -0.234375 23.90625 -0.234375 C 27.164062 -0.234375 29.863281 -1.457031 32 -3.90625 C 34.144531 -6.351562 36.035156 -9.867188 37.671875 -14.453125 C 38.054688 -14.148438 38.40625 -13.6875 38.71875 -13.0625 C 39.03125 -12.4375 39.1875 -11.539062 39.1875 -10.375 C 39.1875 -8.59375 38.523438 -6.804688 37.203125 -5.015625 C 35.878906 -3.222656 34.007812 -1.742188 31.59375 -0.578125 C 29.1875 0.585938 26.351562 1.171875 23.09375 1.171875 Z M 23.09375 1.171875 "/></g></g></g><g fill="#000000" fill-opacity="1"><g transform="translate(286.406056, 214.096756)"><g><path d="M 15.515625 1.171875 C 11.234375 1.171875 8.101562 -0.5 6.125 -3.84375 C 4.144531 -7.1875 3.15625 -11.734375 3.15625 -17.484375 C 3.15625 -21.222656 3.5625 -25.191406 4.375 -29.390625 C 5.1875 -33.585938 6.390625 -37.707031 7.984375 -41.75 C 9.578125 -45.789062 11.578125 -49.460938 13.984375 -52.765625 C 16.398438 -56.066406 19.203125 -58.707031 22.390625 -60.6875 C 25.578125 -62.675781 29.191406 -63.671875 33.234375 -63.671875 C 35.878906 -63.671875 38.113281 -63.203125 39.9375 -62.265625 C 41.757812 -61.335938 43.253906 -60.328125 44.421875 -59.234375 L 50.953125 -62.390625 L 51.890625 -62.390625 L 43.5 -22.625 C 43.257812 -21.300781 42.960938 -19.6875 42.609375 -17.78125 C 42.265625 -15.875 41.957031 -13.988281 41.6875 -12.125 C 41.414062 -10.257812 41.28125 -8.664062 41.28125 -7.34375 C 41.28125 -3.613281 42.523438 -1.75 45.015625 -1.75 C 46.097656 -1.75 47.164062 -2.078125 48.21875 -2.734375 C 49.269531 -3.398438 50.378906 -4.351562 51.546875 -5.59375 L 52.234375 -4.546875 C 50.921875 -3.148438 49.328125 -1.847656 47.453125 -0.640625 C 45.585938 0.566406 43.296875 1.171875 40.578125 1.171875 C 35.140625 1.171875 32.421875 -1.9375 32.421875 -8.15625 C 32.421875 -10.03125 32.570312 -11.9375 32.875 -13.875 C 33.1875 -15.820312 33.5 -17.84375 33.8125 -19.9375 L 33.46875 -19.9375 C 30.75 -12.394531 27.945312 -6.988281 25.0625 -3.71875 C 22.1875 -0.457031 19.003906 1.171875 15.515625 1.171875 Z M 18.65625 -1.046875 C 20.207031 -1.046875 21.816406 -1.9375 23.484375 -3.71875 C 25.160156 -5.507812 26.773438 -7.921875 28.328125 -10.953125 C 29.890625 -13.992188 31.3125 -17.414062 32.59375 -21.21875 C 33.875 -25.03125 34.941406 -28.992188 35.796875 -33.109375 L 41.046875 -58.765625 C 40.265625 -60.015625 39.253906 -60.945312 38.015625 -61.5625 C 36.773438 -62.1875 35.492188 -62.5 34.171875 -62.5 C 31.523438 -62.5 29.113281 -61.445312 26.9375 -59.34375 C 24.757812 -57.25 22.796875 -54.472656 21.046875 -51.015625 C 19.296875 -47.554688 17.796875 -43.726562 16.546875 -39.53125 C 15.304688 -35.332031 14.375 -31.113281 13.75 -26.875 C 13.132812 -22.632812 12.828125 -18.726562 12.828125 -15.15625 C 12.828125 -10.1875 13.332031 -6.59375 14.34375 -4.375 C 15.351562 -2.15625 16.789062 -1.046875 18.65625 -1.046875 Z M 18.65625 -1.046875 "/></g></g></g></svg>