<svg xmlns="http://www.w3.org/2000/svg" xmlns:xlink="http://www.w3.org/1999/xlink" width="500" zoomAndPan="magnify" viewBox="0 0 375 374.999991" height="500" preserveAspectRatio="xMidYMid meet" version="1.0"><defs><g/></defs><g fill="#000000" fill-opacity="1"><g transform="translate(98.873502, 184.390579)"><g><path d="M 1.515625 0 L 7.21875 -26.859375 C 7.5 -28.117188 7.640625 -29.191406 7.640625 -30.078125 C 7.640625 -30.765625 7.445312 -31.238281 7.0625 -31.5 C 6.675781 -31.757812 6.019531 -31.890625 5.09375 -31.890625 L 4.25 -31.890625 L 4.359375 -32.5 L 13.21875 -32.5 L 11.703125 -23.59375 L 11.890625 -23.59375 C 12.941406 -26.863281 14.191406 -29.265625 15.640625 -30.796875 C 17.097656 -32.335938 18.835938 -33.109375 20.859375 -33.109375 C 22.359375 -33.109375 23.457031 -32.703125 24.15625 -31.890625 C 24.863281 -31.085938 25.21875 -30.054688 25.21875 -28.796875 C 25.21875 -27.390625 24.785156 -26.34375 23.921875 -25.65625 C 23.054688 -24.96875 21.992188 -24.625 20.734375 -24.625 C 20.773438 -25.269531 20.804688 -25.820312 20.828125 -26.28125 C 20.847656 -26.75 20.859375 -27.1875 20.859375 -27.59375 C 20.859375 -29.25 20.664062 -30.347656 20.28125 -30.890625 C 19.894531 -31.441406 19.398438 -31.71875 18.796875 -31.71875 C 17.742188 -31.71875 16.710938 -31.128906 15.703125 -29.953125 C 14.691406 -28.785156 13.757812 -27.195312 12.90625 -25.1875 C 12.0625 -23.1875 11.378906 -20.957031 10.859375 -18.5 L 6.796875 0 Z M 1.515625 0 "/></g></g></g><g fill="#000000" fill-opacity="1"><g transform="translate(117.365629, 184.390579)"><g><path d="M 8.0625 0.609375 C 5.84375 0.609375 4.21875 -0.257812 3.1875 -2 C 2.15625 -3.738281 1.640625 -6.101562 1.640625 -9.09375 C 1.640625 -11.03125 1.847656 -13.09375 2.265625 -15.28125 C 2.691406 -17.46875 3.316406 -19.609375 4.140625 -21.703125 C 4.972656 -23.804688 6.015625 -25.71875 7.265625 -27.4375 C 8.523438 -29.15625 9.984375 -30.53125 11.640625 -31.5625 C 13.296875 -32.59375 15.175781 -33.109375 17.28125 -33.109375 C 18.65625 -33.109375 19.816406 -32.863281 20.765625 -32.375 C 21.710938 -31.894531 22.492188 -31.375 23.109375 -30.8125 L 26.5 -32.4375 L 26.984375 -32.4375 L 22.625 -11.765625 C 22.5 -11.078125 22.34375 -10.238281 22.15625 -9.25 C 21.976562 -8.257812 21.816406 -7.273438 21.671875 -6.296875 C 21.535156 -5.328125 21.46875 -4.503906 21.46875 -3.828125 C 21.46875 -1.878906 22.113281 -0.90625 23.40625 -0.90625 C 23.96875 -0.90625 24.519531 -1.078125 25.0625 -1.421875 C 25.613281 -1.765625 26.191406 -2.257812 26.796875 -2.90625 L 27.171875 -2.359375 C 26.484375 -1.640625 25.648438 -0.960938 24.671875 -0.328125 C 23.703125 0.296875 22.515625 0.609375 21.109375 0.609375 C 18.273438 0.609375 16.859375 -1.007812 16.859375 -4.25 C 16.859375 -5.21875 16.9375 -6.207031 17.09375 -7.21875 C 17.257812 -8.226562 17.421875 -9.28125 17.578125 -10.375 L 17.40625 -10.375 C 15.988281 -6.445312 14.53125 -3.632812 13.03125 -1.9375 C 11.539062 -0.238281 9.882812 0.609375 8.0625 0.609375 Z M 9.703125 -0.546875 C 10.515625 -0.546875 11.351562 -1.007812 12.21875 -1.9375 C 13.082031 -2.863281 13.921875 -4.113281 14.734375 -5.6875 C 15.546875 -7.269531 16.285156 -9.050781 16.953125 -11.03125 C 17.617188 -13.019531 18.171875 -15.082031 18.609375 -17.21875 L 21.34375 -30.5625 C 20.9375 -31.207031 20.410156 -31.691406 19.765625 -32.015625 C 19.117188 -32.335938 18.453125 -32.5 17.765625 -32.5 C 16.390625 -32.5 15.132812 -31.953125 14 -30.859375 C 12.875 -29.773438 11.851562 -28.332031 10.9375 -26.53125 C 10.03125 -24.726562 9.253906 -22.734375 8.609375 -20.546875 C 7.960938 -18.367188 7.476562 -16.175781 7.15625 -13.96875 C 6.832031 -11.769531 6.671875 -9.742188 6.671875 -7.890625 C 6.671875 -5.296875 6.929688 -3.421875 7.453125 -2.265625 C 7.984375 -1.117188 8.734375 -0.546875 9.703125 -0.546875 Z M 9.703125 -0.546875 "/></g></g></g><g fill="#000000" fill-opacity="1"><g transform="translate(140.587105, 184.390579)"><g><path d="M 8.484375 0.609375 C 6.785156 0.609375 5.472656 0.09375 4.546875 -0.9375 C 3.617188 -1.96875 3.15625 -3.332031 3.15625 -5.03125 C 3.15625 -5.882812 3.210938 -6.785156 3.328125 -7.734375 C 3.453125 -8.679688 3.695312 -9.984375 4.0625 -11.640625 L 8.3125 -31.890625 L 3.9375 -31.890625 L 4 -32.203125 C 5.132812 -32.203125 6.390625 -32.421875 7.765625 -32.859375 C 9.140625 -33.304688 10.453125 -34.085938 11.703125 -35.203125 C 12.953125 -36.316406 14.003906 -37.90625 14.859375 -39.96875 L 15.46875 -39.96875 L 13.890625 -32.5 L 19.28125 -32.5 L 19.15625 -31.890625 L 13.703125 -31.890625 L 8.921875 -9.578125 C 8.554688 -7.878906 8.320312 -6.625 8.21875 -5.8125 C 8.113281 -5.007812 8.0625 -4.328125 8.0625 -3.765625 C 8.0625 -2.710938 8.234375 -1.921875 8.578125 -1.390625 C 8.921875 -0.867188 9.554688 -0.609375 10.484375 -0.609375 C 11.253906 -0.609375 12.039062 -0.800781 12.84375 -1.1875 C 13.65625 -1.570312 14.46875 -2.085938 15.28125 -2.734375 L 15.53125 -2.1875 C 14.476562 -1.375 13.382812 -0.703125 12.25 -0.171875 C 11.113281 0.347656 9.859375 0.609375 8.484375 0.609375 Z M 8.484375 0.609375 "/></g></g></g><g fill="#000000" fill-opacity="1"><g transform="translate(153.379751, 184.390579)"><g><path d="M 11.34375 0.609375 C 8.550781 0.609375 6.296875 -0.359375 4.578125 -2.296875 C 2.859375 -4.242188 2 -7.21875 2 -11.21875 C 2 -13 2.191406 -14.890625 2.578125 -16.890625 C 2.960938 -18.890625 3.554688 -20.847656 4.359375 -22.765625 C 5.171875 -24.691406 6.179688 -26.429688 7.390625 -27.984375 C 8.609375 -29.535156 10.046875 -30.773438 11.703125 -31.703125 C 13.359375 -32.640625 15.238281 -33.109375 17.34375 -33.109375 C 19.039062 -33.109375 20.578125 -32.703125 21.953125 -31.890625 C 23.328125 -31.085938 24.425781 -29.816406 25.25 -28.078125 C 26.082031 -26.335938 26.5 -24.050781 26.5 -21.21875 C 26.5 -19.476562 26.304688 -17.617188 25.921875 -15.640625 C 25.535156 -13.660156 24.945312 -11.707031 24.15625 -9.78125 C 23.375 -7.863281 22.382812 -6.117188 21.1875 -4.546875 C 20 -2.972656 18.585938 -1.71875 16.953125 -0.78125 C 15.316406 0.144531 13.445312 0.609375 11.34375 0.609375 Z M 11.578125 0 C 13.203125 0 14.628906 -0.722656 15.859375 -2.171875 C 17.085938 -3.628906 18.125 -5.519531 18.96875 -7.84375 C 19.820312 -10.175781 20.460938 -12.707031 20.890625 -15.4375 C 21.316406 -18.164062 21.53125 -20.800781 21.53125 -23.34375 C 21.53125 -26.457031 21.15625 -28.757812 20.40625 -30.25 C 19.65625 -31.75 18.515625 -32.5 16.984375 -32.5 C 15.441406 -32.5 14.050781 -31.789062 12.8125 -30.375 C 11.582031 -28.96875 10.535156 -27.097656 9.671875 -24.765625 C 8.804688 -22.441406 8.128906 -19.894531 7.640625 -17.125 C 7.148438 -14.363281 6.90625 -11.628906 6.90625 -8.921875 C 6.90625 -5.640625 7.3125 -3.332031 8.125 -2 C 8.9375 -0.664062 10.085938 0 11.578125 0 Z M 11.578125 0 "/></g></g></g><g fill="#000000" fill-opacity="1"><g transform="translate(176.479969, 184.390579)"><g><path d="M 22.3125 0.609375 C 20.695312 0.609375 19.453125 0.132812 18.578125 -0.8125 C 17.710938 -1.769531 17.28125 -3.113281 17.28125 -4.84375 C 17.28125 -5.820312 17.367188 -6.914062 17.546875 -8.125 C 17.734375 -9.332031 17.988281 -10.6875 18.3125 -12.1875 L 20.125 -20.796875 C 20.289062 -21.566406 20.503906 -22.640625 20.765625 -24.015625 C 21.023438 -25.390625 21.15625 -26.601562 21.15625 -27.65625 C 21.15625 -28.175781 21.101562 -28.726562 21 -29.3125 C 20.90625 -29.90625 20.695312 -30.410156 20.375 -30.828125 C 20.050781 -31.253906 19.546875 -31.46875 18.859375 -31.46875 C 17.609375 -31.46875 16.4375 -30.800781 15.34375 -29.46875 C 14.25 -28.132812 13.273438 -26.457031 12.421875 -24.4375 C 11.578125 -22.414062 10.929688 -20.351562 10.484375 -18.25 L 6.609375 0 L 1.328125 0 L 7.03125 -26.921875 C 7.15625 -27.523438 7.253906 -28.078125 7.328125 -28.578125 C 7.410156 -29.085938 7.453125 -29.503906 7.453125 -29.828125 C 7.453125 -30.515625 7.300781 -31.03125 7 -31.375 C 6.695312 -31.71875 6.039062 -31.890625 5.03125 -31.890625 L 4.3125 -31.890625 L 4.359375 -32.5 L 13.09375 -32.5 L 11.46875 -23.765625 L 11.578125 -23.765625 C 12.910156 -27.160156 14.328125 -29.546875 15.828125 -30.921875 C 17.328125 -32.296875 19.066406 -32.984375 21.046875 -32.984375 C 22.984375 -32.984375 24.34375 -32.375 25.125 -31.15625 C 25.914062 -29.945312 26.3125 -28.535156 26.3125 -26.921875 C 26.3125 -25.867188 26.203125 -24.6875 25.984375 -23.375 C 25.765625 -22.0625 25.507812 -20.757812 25.21875 -19.46875 L 23.34375 -10.375 C 23.0625 -9.113281 22.828125 -7.90625 22.640625 -6.75 C 22.460938 -5.601562 22.375 -4.546875 22.375 -3.578125 C 22.375 -1.554688 22.984375 -0.546875 24.203125 -0.546875 C 24.878906 -0.546875 25.519531 -0.796875 26.125 -1.296875 C 26.738281 -1.804688 27.367188 -2.445312 28.015625 -3.21875 L 28.375 -2.734375 C 27.53125 -1.640625 26.648438 -0.804688 25.734375 -0.234375 C 24.828125 0.328125 23.6875 0.609375 22.3125 0.609375 Z M 22.3125 0.609375 "/></g></g></g><g fill="#000000" fill-opacity="1"><g transform="translate(200.792838, 184.390579)"><g><path d="M 12.125 -39.78125 C 11.351562 -39.78125 10.695312 -39.984375 10.15625 -40.390625 C 9.613281 -40.796875 9.34375 -41.441406 9.34375 -42.328125 C 9.34375 -43.460938 9.703125 -44.320312 10.421875 -44.90625 C 11.148438 -45.488281 12.003906 -45.78125 12.984375 -45.78125 C 13.742188 -45.78125 14.40625 -45.585938 14.96875 -45.203125 C 15.539062 -44.816406 15.828125 -44.160156 15.828125 -43.234375 C 15.828125 -42.097656 15.460938 -41.238281 14.734375 -40.65625 C 14.003906 -40.070312 13.132812 -39.78125 12.125 -39.78125 Z M 8.25 0.609375 C 4.9375 0.609375 3.28125 -1.191406 3.28125 -4.796875 C 3.28125 -6.367188 3.625 -8.691406 4.3125 -11.765625 L 7.578125 -27.65625 C 7.816406 -28.539062 7.9375 -29.367188 7.9375 -30.140625 C 7.9375 -30.742188 7.734375 -31.1875 7.328125 -31.46875 C 6.929688 -31.75 6.144531 -31.890625 4.96875 -31.890625 L 4.25 -31.890625 L 4.359375 -32.5 L 14.0625 -32.5 L 8.96875 -8.609375 C 8.6875 -7.398438 8.503906 -6.390625 8.421875 -5.578125 C 8.347656 -4.765625 8.3125 -4.078125 8.3125 -3.515625 C 8.3125 -2.628906 8.429688 -1.898438 8.671875 -1.328125 C 8.910156 -0.765625 9.375 -0.484375 10.0625 -0.484375 C 10.664062 -0.484375 11.289062 -0.742188 11.9375 -1.265625 C 12.59375 -1.796875 13.242188 -2.445312 13.890625 -3.21875 L 14.3125 -2.734375 C 13.5 -1.765625 12.640625 -0.960938 11.734375 -0.328125 C 10.828125 0.296875 9.664062 0.609375 8.25 0.609375 Z M 8.25 0.609375 "/></g></g></g><g fill="#000000" fill-opacity="1"><g transform="translate(211.038904, 184.390579)"><g><path d="M 12 0.609375 C 8.925781 0.609375 6.5 -0.398438 4.71875 -2.421875 C 2.945312 -4.441406 2.0625 -7.535156 2.0625 -11.703125 C 2.0625 -14.003906 2.375 -16.390625 3 -18.859375 C 3.625 -21.328125 4.570312 -23.628906 5.84375 -25.765625 C 7.125 -27.910156 8.753906 -29.648438 10.734375 -30.984375 C 12.710938 -32.316406 15.035156 -32.984375 17.703125 -32.984375 C 20.367188 -32.984375 22.257812 -32.367188 23.375 -31.140625 C 24.488281 -29.910156 25.046875 -28.503906 25.046875 -26.921875 C 25.046875 -25.828125 24.710938 -24.882812 24.046875 -24.09375 C 23.378906 -23.3125 22.238281 -22.921875 20.625 -22.921875 C 20.738281 -23.609375 20.828125 -24.332031 20.890625 -25.09375 C 20.953125 -25.863281 20.960938 -26.675781 20.921875 -27.53125 C 20.878906 -29.3125 20.546875 -30.554688 19.921875 -31.265625 C 19.296875 -31.972656 18.414062 -32.328125 17.28125 -32.328125 C 15.820312 -32.328125 14.476562 -31.695312 13.25 -30.4375 C 12.019531 -29.1875 10.9375 -27.507812 10 -25.40625 C 9.070312 -23.300781 8.351562 -20.972656 7.84375 -18.421875 C 7.34375 -15.878906 7.09375 -13.316406 7.09375 -10.734375 C 7.09375 -7.140625 7.566406 -4.472656 8.515625 -2.734375 C 9.460938 -0.992188 10.769531 -0.125 12.4375 -0.125 C 14.132812 -0.125 15.535156 -0.757812 16.640625 -2.03125 C 17.753906 -3.300781 18.738281 -5.128906 19.59375 -7.515625 C 19.789062 -7.359375 19.96875 -7.117188 20.125 -6.796875 C 20.289062 -6.472656 20.375 -6.003906 20.375 -5.390625 C 20.375 -4.460938 20.03125 -3.535156 19.34375 -2.609375 C 18.65625 -1.679688 17.679688 -0.910156 16.421875 -0.296875 C 15.171875 0.304688 13.695312 0.609375 12 0.609375 Z M 12 0.609375 "/></g></g></g><g fill="#000000" fill-opacity="1"><g transform="translate(230.379887, 184.390579)"><g><path d="M 8.0625 0.609375 C 5.84375 0.609375 4.21875 -0.257812 3.1875 -2 C 2.15625 -3.738281 1.640625 -6.101562 1.640625 -9.09375 C 1.640625 -11.03125 1.847656 -13.09375 2.265625 -15.28125 C 2.691406 -17.46875 3.316406 -19.609375 4.140625 -21.703125 C 4.972656 -23.804688 6.015625 -25.71875 7.265625 -27.4375 C 8.523438 -29.15625 9.984375 -30.53125 11.640625 -31.5625 C 13.296875 -32.59375 15.175781 -33.109375 17.28125 -33.109375 C 18.65625 -33.109375 19.816406 -32.863281 20.765625 -32.375 C 21.710938 -31.894531 22.492188 -31.375 23.109375 -30.8125 L 26.5 -32.4375 L 26.984375 -32.4375 L 22.625 -11.765625 C 22.5 -11.078125 22.34375 -10.238281 22.15625 -9.25 C 21.976562 -8.257812 21.816406 -7.273438 21.671875 -6.296875 C 21.535156 -5.328125 21.46875 -4.503906 21.46875 -3.828125 C 21.46875 -1.878906 22.113281 -0.90625 23.40625 -0.90625 C 23.96875 -0.90625 24.519531 -1.078125 25.0625 -1.421875 C 25.613281 -1.765625 26.191406 -2.257812 26.796875 -2.90625 L 27.171875 -2.359375 C 26.484375 -1.640625 25.648438 -0.960938 24.671875 -0.328125 C 23.703125 0.296875 22.515625 0.609375 21.109375 0.609375 C 18.273438 0.609375 16.859375 -1.007812 16.859375 -4.25 C 16.859375 -5.21875 16.9375 -6.207031 17.09375 -7.21875 C 17.257812 -8.226562 17.421875 -9.28125 17.578125 -10.375 L 17.40625 -10.375 C 15.988281 -6.445312 14.53125 -3.632812 13.03125 -1.9375 C 11.539062 -0.238281 9.882812 0.609375 8.0625 0.609375 Z M 9.703125 -0.546875 C 10.515625 -0.546875 11.351562 -1.007812 12.21875 -1.9375 C 13.082031 -2.863281 13.921875 -4.113281 14.734375 -5.6875 C 15.546875 -7.269531 16.285156 -9.050781 16.953125 -11.03125 C 17.617188 -13.019531 18.171875 -15.082031 18.609375 -17.21875 L 21.34375 -30.5625 C 20.9375 -31.207031 20.410156 -31.691406 19.765625 -32.015625 C 19.117188 -32.335938 18.453125 -32.5 17.765625 -32.5 C 16.390625 -32.5 15.132812 -31.953125 14 -30.859375 C 12.875 -29.773438 11.851562 -28.332031 10.9375 -26.53125 C 10.03125 -24.726562 9.253906 -22.734375 8.609375 -20.546875 C 7.960938 -18.367188 7.476562 -16.175781 7.15625 -13.96875 C 6.832031 -11.769531 6.671875 -9.742188 6.671875 -7.890625 C 6.671875 -5.296875 6.929688 -3.421875 7.453125 -2.265625 C 7.984375 -1.117188 8.734375 -0.546875 9.703125 -0.546875 Z M 9.703125 -0.546875 "/></g></g></g><g fill="#000000" fill-opacity="1"><g transform="translate(139.36687, 231.185711)"><g><path d="M 12.5625 -25.921875 L 12.5625 0 L 3.03125 0 L 3.03125 -41.78125 L 12.5625 -41.78125 L 29.171875 -15.84375 L 29.265625 -15.84375 L 29.265625 -41.78125 L 38.796875 -41.78125 L 38.796875 0 L 29.265625 0 L 12.65625 -25.921875 Z M 12.5625 -25.921875 "/></g></g></g><g fill="#000000" fill-opacity="1"><g transform="translate(176.685585, 231.185711)"><g><path d="M 12.5625 -25.921875 L 12.5625 0 L 3.03125 0 L 3.03125 -41.78125 L 12.5625 -41.78125 L 29.171875 -15.84375 L 29.265625 -15.84375 L 29.265625 -41.78125 L 38.796875 -41.78125 L 38.796875 0 L 29.265625 0 L 12.65625 -25.921875 Z M 12.5625 -25.921875 "/></g></g></g></svg>